<svg id="图层_1" data-name="图层 1" xmlns="http://www.w3.org/2000/svg" viewBox="0 0 592.42239 591.16242"><defs><style>.cls-1{fill:#b0c8ee;}.cls-2{fill:#ffd67e;}.cls-3{fill:#c0927a;}.cls-4{fill:#fff;}.cls-5{fill:#ffcdce;}.cls-6{fill:none;}.cls-7{fill:#ffddf5;}.cls-8{fill:#fb9c98;}.cls-9{fill:#ff999a;}.cls-10{fill:#675c58;}</style></defs><polygon class="cls-1" points="233.129 295.581 156.456 262.708 148.836 211.195 152.349 167.188 174.007 101.147 245.227 25.049 355.064 6.317 441.519 21.537 481.324 42.61 516.921 68.366 536.506 104.659 541.032 135.346 549.812 148.286 568.544 167.188 586.105 191.293 586.105 222.317 583.178 252.171 570.3 269.147 534.081 302.987 516.921 290.596 493.136 280.067 467.489 287.76 440.349 310.229 384.926 310.229 343.324 310.229 325.763 299 304.261 282.184 275.861 279.683 250.105 287.76 233.129 295.581"/><polygon class="cls-2" points="281.129 471.845 285.09 567.206 294.154 575.139 423.227 581.732 489.601 577.919 513.608 565.488 523.608 532.131 498.425 504.14 478.605 492.628 493.136 473.732 506.641 466.415 503.861 442.122 478.605 392.951 450.72 405.907 409.178 401.229 398.79 368.366 367.471 368.366 357.812 391.634 334.983 405.907 316.983 413.586 293.715 447.39 291.666 471.845 281.129 471.845"/><polyline class="cls-3" points="285.09 504.14 414.766 575.139 435.253 581.732 449.661 581.732 450.72 575.139 513.608 517.634 504.446 504.14 435.253 567.206 278.788 486.279 285.09 504.14"/><path class="cls-3" d="M1030.985,777.80168s40.39025-32.19513,52.09757-32.48781,26.04878,4.84722,26.04878,4.84722,14.92683,5.39668,18.7317,7.73815l48,24.87805,54.14635,33.07317s17.12981,12.58536,18.22344,14.04878-17.05271,9.36585-17.05271,9.36585l-8.24081-9.34407-45.80121-28.11934s-38.15311-22.53659-47.22628-25.17073l-40.39024-19.0244-28.85935,18.14635-15.92114,13.9114,29.20414,11.25933,18.76245,10.53658,29.8814,20.389-16.96994,4.489L1094.49719,831.07s-33.3807-20.78049-58.83669-26.92683Z" transform="translate(-749.85585 -257.53319)"/><path class="cls-3" d="M1165.32646,750.16111s-98.34147,72.42105-107.41464,83.83569l-16.39024-9.25776s99.35046-80.96475,110.63415-80.92667,21.07317,8.23321,21.07317,8.23321l32.4878,7.90244,18.29676-2.63415s-8.9309,9.36586-9.22359,10.82927,53.85366,33.95122,53.85366,33.95122l-6.57382,12.878-5.37114.04433-54.49406-35.48338S1143.9606,831.07,1143.37524,833.9968s-20.78616-2.14755-20.78616-2.14755l69.66421-65.16952-20.48781-5.00687Z" transform="translate(-749.85585 -257.53319)"/><polygon class="cls-3" points="369.519 385.712 393.812 397.62 371.062 405.907 360.971 395.809 369.519 385.712"/><polygon class="cls-3" points="386.202 370.095 398.79 401.229 405.227 400.291 402.3 383.586 395.715 368.366 386.202 370.095"/><polygon class="cls-3" points="306.885 431.878 335.861 431.878 355.064 416.11 349.032 409.049 325.324 411.822 306.885 431.878"/><polygon class="cls-3" points="303.08 446.512 330.975 440.951 314.495 462.652 296.211 462.652 303.08 446.512"/><path class="cls-3" d="M1231.18012,660.43582s-10.557,19.02439-19.62,24.29269l7.62,14.92683s18.89536-14.92683,20.27695-21.65854Z" transform="translate(-749.85585 -257.53319)"/><path class="cls-3" d="M1245.2289,693.509l-19.72028,15.82583,2.95242,14.6132s23.49956-12,25.25566-15.21951Z" transform="translate(-749.85585 -257.53319)"/><path class="cls-4" d="M978.63447,544.54147s-9.25923-102.97827,114.61865-122.71342l151.20413,4.16016s66.07542,13.00728,77.69183,90.65428c0,0-9.01774,32.42748-41.06652,39.89089,0,0-34.87889-21.95122-42.02481-18.878l-29.97519,15.45906-9.56536,12.19947-19.84928,2.44846-61.3457,4.46336-25.1421-4.46336-17.561-11.229-25.26039-19.75609-34.886,3.07317L995.08256,553.1144H978.47787Z" transform="translate(-749.85585 -257.53319)"/><ellipse class="cls-5" cx="1033.33139" cy="437.45227" rx="22.96335" ry="30.52494" transform="translate(-236.62398 1174.22022) rotate(-85.33178)"/><ellipse class="cls-5" cx="1285.18012" cy="438.58219" rx="21.14634" ry="27.5122" transform="translate(38.56219 1444.88035) rotate(-87.38496)"/><path d="M1341.10331,501.33644a93.1872,93.1872,0,0,0,1.17492-14.51764c-.76562-8.14221-1.46667-16.44049-.77526-24.54663-2.51563-28.7218-18.261-49.82532-41.87415-66.10712-2.49158-1.718-3.45813-3.29638-3.55237-6.31207-1.13672-36.37054-18.29785-65.113-46.0824-86.49774-36.35888-27.98407-78.681-41.7774-124.5072-44.97833-38.98413-2.723-77.085.95508-114.1571,13.81488-32.86414,11.40008-60.38172,30.048-80.03327,59.156A48.75483,48.75483,0,0,1,918.396,344.0984c-21.723,15.36207-41.82245,32.51325-55.90192,55.56476-2.34765,3.84375-4.68109,4.53235-8.84136,3.3747-12.62012-3.51178-24.42811-1.82154-34.74347,6.79626-12.92035,10.79413-18.08289,24.6546-16.33228,41.30561.2226,2.11718.3269,5.35583-.88531,6.284a17.993,17.993,0,0,1-9.03656,3.74237c-16.21515,1.191-27.67908,10.0448-36.43549,22.66748-7.74823,11.16931-8.71271,23.32135-1.279,35.18933a62.15415,62.15415,0,0,0,9.9331,11.766c4.53571,4.31292,9.653,8.01428,14.51612,11.9779-2.262,3.75378-4.6922,7.13745-6.42841,10.846a72.00548,72.00548,0,0,0-4.37842,12.18091c-5.97308,22.73657,4.08527,40.124,26.96027,45.10815,9.16009,1.99585,18.8,2.05762,28.243,2.39032,6.06048.21356,12.16009-.68506,19.85266-1.1911-17.61853,24.10651-33.94623,47.52179-34.09351,77.79706-9.68548.81274-16.41394,5.6784-22.83343,10.527-14.05341,10.61456-20.52637,25.28564-19.21527,42.69854,1.36938,18.187,10.49072,32.26673,25.4483,42.67621a7.44479,7.44479,0,0,1,2.9577,4.63788q2.55918,24.05265,22.20246,37.95288c10.5437,7.46954,22.65637,10.37811,35.28265,11.018,23.105,1.17083,44.39191-3.41547,61.40436-20.65894.74933-.75946,2.6878-.86456,3.902-.57062a294.2054,294.2054,0,0,0,91.72949,7.05976c8.60785-.64478,14.96991.08044,17.98767,9.42364,1.07349,3.32355,3.19214,6.26154,7.77722,6.67523,22.19019,2.00177,44.30646,5.42713,66.53046,6.32337,45.94885,1.853,91.92785,1.54828,137.7229-3.66925a14.69946,14.69946,0,0,0,7.33227-2.71308c15.28284-12.45489,31.038-24.68219,32.23743-47.01007,2.1178.11829,3.76428.10291,5.37988.3183,8.82862,1.17688,15.95362-1.983,21.85913-8.4024,7.0376-7.64985,10.36524-16.85779,11.71167-27.005,3.37818-25.45856-15.80029-36.05878-33.70581-32.01538a86.199,86.199,0,0,1-8.62451,1.05658c-.2384-1.56879-.52429-2.83661-.61108-4.11792-.702-10.363-.71472-10.39563-10.30445-13.62292-6.90966-2.32538-8.70214-8.30854-3.96545-13.82886,11.95435-13.93219,23.1803-28.4007,31.57654-44.79584,12.69775-24.79486,24.88379-49.90576,26.00683-78.43774.35181-8.93677,4.46021-19.46723-6.80139-26.04309,2.17652-2.3747,4.103-4.62665,6.18555-6.72376C1329.73929,529.553,1338.47855,516.747,1341.10331,501.33644Zm-434.79114-124.102c-4.86121,15.82086-9.93457,32.33209-14.59119,47.48694-4.26489-3.79431-8.96832-7.9787-14.04913-12.4989C885.7653,399.04359,895.12931,386.73171,906.31217,377.23439Zm83.6615,229.55225c.55328,1.3526,1.1698,2.67938,2.30243,5.26172-36.33167-8.32813-71.769-15.13086-104.69226-31.08454,2.90484-7.26428,5.59424-14.00628,8.3081-20.73834.17963-.44556.46173-1.05347.83765-1.18658,10.36829-3.67353,9.13617-13.60206,11.58972-21.51349a35.513,35.513,0,0,0,.778-5.12238c7.299,3.78143,13.92468,7.97467,21.09472,10.77313,15.79187,6.16376,31.81555,11.74836,47.846,17.27521,3.60516,1.243,4.78241,2.489,4.28546,6.598C980.63389,581.01961,984.763,594.04811,989.97367,606.78664ZM776.19926,517.94789c-10.327-10.17065-9.86054-19.46509.34539-29.89062,8.88855-9.07978,19.376-11.76636,31.52356-9.194,2.60639.55194,5.17517,1.334,7.804,1.71637,5.803.844,9.93365-2.85486,9.37536-8.65741a75.41644,75.41644,0,0,0-2.20513-11.17279c-2.41413-9.54157-3.93836-19.21881,1.02771-28.246,8.44982-15.36,20.74237-18.25781,38.85931-9.32177,10.48975,5.174,16.72284,14.55542,21.59827,24.798,7.63043,16.03034,11.291,32.82648,11.38977,56.28009-1.0578,8.7909-2.6969,23.00543-4.60962,37.183-.15265,1.1314-2.03852,2.48639-3.38483,2.9295-16.16785,5.32117-32.64123,8.54517-49.61987,4.77362C815.02341,543.97475,793.503,534.98946,776.19926,517.94789Zm25.801,78.57379c-13.8006-3.138-19.02869-11.36309-15.35516-25.11456,1.46338-5.47821,4.54345-10.57788,7.26544-15.64691,1.67993-3.12836,4.276-3.19379,7.64722-1.69031,14.0531,6.26758,28.53222,11.54364,44.03582,12.343,9.88062.50946,19.8324-.36029,30.94031-.64173-4.14148,6.81891-8.49286,13.45173-12.28436,20.39057-3.15875,5.78082-7.75928,8.33606-14.13269,9.50378C834.078,598.60414,818.08182,600.17836,802.00028,596.52168ZM788.33036,752.95552c-7.37988-18.72479,2.42358-37.96393,23.32525-45.63989,4.1012,26.69177,15.08851,49.97442,35.57789,68.91809C816.98716,787.89613,796.08249,772.62477,788.33036,752.95552Zm89.86847,70.01386a72.34261,72.34261,0,0,1-37.00739-1.38227c-12.63879-3.78137-21.01751-12.02807-25.24-24.14367,8.22449-.65985,16.17139-.77521,23.91645-2.08454,6.162-1.04181,12.045-3.66192,18.12359-5.31756,1.67548-.45636,3.98-.61151,5.36469.188,11.93072,6.88922,23.71838,14.0263,35.54138,21.10162.54187.32434,1.01434.76471,1.82654,1.38629C894.28483,818.99245,886.25986,821.16554,878.19883,822.96938Zm145.066-97.51142c-2.79865,3.6352-4.156,9.08106-4.40552,13.838-.60107,11.45764-.19617,22.96813-.1969,34.45727-.00012,2.15155,0,4.303,0,7.25281-2.76587-.46015-5.278-.73786-7.72247-1.30609-29.28565-6.80707-57.40894-17.05976-84.94361-28.98-24.77789-10.72675-49.3056-22.02576-70.66717-38.89551-8.96954-7.08344-17.31946-14.95734-25.82813-22.60864-.76446-.6875-.97613-2.42163-.84674-3.60425a82.95381,82.95381,0,0,1,10.80475-33.25727c48.73023,29.99262,103.29706,41.3158,157.41516,53.88733,11.828,2.74768,23.82044,4.78644,35.731,7.18219a26.32047,26.32047,0,0,1,3.0553,1.03846c-.12378,2.53875-.24329,4.98913-.36273,7.43945q-.4162-.61551-.8324-1.23114C1030.61985,722.18019,1025.4257,722.65138,1023.26487,725.458Zm56.42462-3.77069c.43018-.6441,2.10767-.73346,3.17-.63629q39.24171,3.5896,78.47205,7.30365a7.57458,7.57458,0,0,1,1.57837.56073c-.09229,3.29712-.05811,6.14178-4.91,5.971-27.2583-.95978-54.52368-1.71692-81.786-2.566a11.46688,11.46688,0,0,1-2.26867-.82684C1075.90238,728.07356,1077.63016,724.76973,1079.68949,721.68727Zm-22.93793,7.691c-1.81708-.39734-4.144-.90619-6.39282-1.39789,1.58557-7.84912,3.04077-15.31768,4.61047-22.76214,2.47571-11.74127,10.56647-20.17066,17.5047-29.25464a4.49267,4.49267,0,0,1,2.98059-1.33887c6.00647-.43243,12.02478-.70044,17.25318-.98181C1076.38053,688.39,1066.64127,708.50417,1056.75156,729.37831Zm64.1662-74.22528c1.55164-4.53845,3.45715-10.45319,5.64673-16.261.507-1.345,1.85181-3.13079,3.03833-3.32495a69.34952,69.34952,0,0,1,12.23279-.82232c.92749.01446,2.29309,1.71515,2.65783,2.88818,1.56739,5.03931,2.8368,10.17133,4.15284,15.04077C1139.19291,653.51894,1129.48661,654.38686,1120.91776,655.153ZM1147.8411,615.419c-.4364,1.00751-1.68555,2.32807-2.5957,2.35828-6.24146.207-12.49317.10864-19.39942.10864-1.92163-15.95416-14.56921-27.02655-20.926-41.421h71.0332l.58814,1.37488c-3.45679,3.88989-6.81812,7.87018-10.39063,11.65075C1158.80314,597.2657,1152.14335,605.48756,1147.8411,615.419Zm-37.0459,13.31909c.80335,16.42212-13.98071,29.92548-31.6416,29.045-12.46777-.62159-23.93732-4.96265-34.14032-11.63929-18.49383-12.1018-32.65369-28.33032-40.93121-49.00915-3.05139-7.623-4.49646-15.889-6.6742-23.86169.85266-17.676,11.96912-26.64264,30.00367-27.86261,14.33428-.96967,27.25476,4.12585,38.434,12.91223,12.00622,9.43628,22.02758,20.69452,29.115,34.4259a123.96012,123.96012,0,0,0,8.02246,12.60834A44.78111,44.78111,0,0,1,1110.7952,628.73805Zm156.51416,120.83258c8.88892-2.06738,17.7771-4.35418,26.798-5.57287,8.24524-1.11377,11.884,2.80475,11.68884,11.38391-.47339,6.93811-2.14563,13.92346-7.04407,19.8938-2.69958,3.29022-5.93054,4.90661-10.06067,4.0155a43.60584,43.60584,0,0,1-25.92138-16.57068C1260.59562,759.90248,1263.87064,750.37044,1267.30936,749.57063Zm-6.37353,34.699c5.46655,4.29248,7.3435,11.00342,4.29883,17.30939a62.92915,62.92915,0,0,1-20.57459,24.60235,15.30321,15.30321,0,0,1-7.36047,2.63074c-21.229,1.50439-42.47437,3.8465-63.71607,3.86-33.9187.02155-67.84643-1.33856-101.75219-2.603-8.41236-.31372-16.7981-2.291-25.09687-3.98883a7.91448,7.91448,0,0,1-4.83978-4.32892,54.18,54.18,0,0,1-3.82855-13.86957q-1.98011-19.08645-2.89722-38.2782c-.444-9.41-.08716-18.85791-.08716-29.27356,23.48175,8.97638,47.15985,9.78791,70.72541,10.8852,16.43969.76544,32.92382.643,49.38916.73223,3.11718.01691,4.892.40809,6.258,3.83905,4.72656,11.87085,14.93579,17.743,28.219,15.1012,10.666-2.12121,21.01941-5.93,31.38855-9.36139,3.45349-1.14282,5.84143-2.12579,8.29516,1.84906,3.2804,5.314,8.80689,7.15961,14.86633,8.00348,2.12769.29633,4.24354,1.91107,6.00293,3.36243C1253.91019,777.78,1257.18534,781.32454,1260.93583,784.26961Zm-28.52869-57.961c-2.66394-20.7735-11.86975-37.40155-23.71789-53.07678,6.39709-2.60742,12.3291-5.02527,19.48876-7.94361,4.85059,11.10138,9.90711,22.19434,14.53223,33.46442a150.25345,150.25345,0,0,1,5.44116,17.08191c.31739,1.1485-.33593,3.44537-1.217,3.89795C1242.25712,722.135,1237.36478,724.11836,1232.40714,726.30861ZM1246.493,751.656a2.96582,2.96582,0,0,1-1.62488,2.10877c-.68555.18719-1.69361-.54279-2.4596-1.02851-.365-.23144-.52185-.81885-.72949-1.2652-.67969-1.46051-1.33911-2.93017-2.22192-4.86987C1243.51908,746.04689,1246.90348,748.70668,1246.493,751.656Zm-22.4795-9.3316c-13.34423,5.679-25.2417,10.83087-38.36743,11.9179-6.6643.552-9.47192-1.89837-8.21606-8.40185,1.52746-7.91,4.25769-15.61224,6.8872-23.26.41785-1.21521,3.51746-2.77136,4.56739-2.31342C1201.28055,725.67415,1212.118,733.57869,1224.01346,742.32436Zm-3.91088-92.17054c-12.69031,7.29059-26.06324,11.26893-41.07007,6.59082-16.41346-5.11669-20.88623-22.84088-15.84632-34.19433a69.816,69.816,0,0,1,10.98413-17.09955c13.49646-15.57312,28.22657-30.02386,39.71253-47.37286,7.10327-10.72907,23.349-14.82569,35.507-10.53479,14.40173,5.0827,23.32458,17.61609,24.07385,32.92639-1.30664,4.94-1.67358,10.40161-4.07788,14.73224C1257.16483,617.21443,1242.47684,637.29958,1220.10258,650.15382Zm85.76391-76.777c-.86157,7.41583-1.43506,14.97784-3.41479,22.12255-2.478,8.94214-6.16028,17.5611-9.5586,26.22706-.55957,1.42681-2.20593,3.21215-3.55932,3.41143-7.04493,1.03754-14.15772,1.61554-22.55664,2.48993,2.0111-3.08526,3.03149-5.5722,4.81628-7.24255,13.79932-12.91461,19.00232-28.85779,17.21484-47.39191-.09326-.9671-.012-1.95105-.012-3.52258,4.03919-.49823,7.71423-.66956,11.25232-1.45667C1304.87443,566.94038,1306.32743,569.40834,1305.86649,573.37679Zm-4.83252-35.09992c-6.5487,4.44226-13.365,8.49024-19.11584,12.12213-7.75257-5.63464-14.52063-12.04675-22.49622-16.05877-20.47265-10.29853-46.33252-4.03943-59.19446,14.93689-5.93518,8.75677-12.30261,11.57391-22.40246,11.2127-27.45813-.98187-54.949-1.09387-82.42859-1.37976-4.095-.0426-6.79846-1.84991-9.41882-4.63415-14.31568-15.21082-32.01441-23.9834-52.74866-25.40473-15.68463-1.07519-29.96051,3.34491-41.28266,15.192a6.60085,6.60085,0,0,1-5.47009,1.63776c-20.12744-5.96717-40.10632-12.40979-58.7409-22.29505-3.95118-2.096-7.45832-5.01568-11.35053-7.24017-3.84936-2.2-4.33484-5.23108-4.5224-9.469-.57178-12.91857-.47925-26.17816-3.55267-38.58483-2.93793-11.85944-2.07892-22.89673-.27307-34.44989,5.62463-35.98468,22.39337-67.19971,42.67865-96.44611,17.66467-25.46808,43.24707-40.84052,72.59344-50.34863,49.43341-16.0163,99.41034-16.3772,149.40448-4.23535,26.72717,6.49108,51.9021,18.10522,73.01856,35.8919,23.0437,19.41,37.04077,44.673,39.96826,75.2876.41211,4.30945.60815,8.65851,1.344,12.91315.84766,4.90075,3.65491,6.1026,8.33423,4.866,1.56116-.41253,3.93872.41742,5.32959,1.48139,25.19666,19.2746,30.59839,46.3996,29.39307,75.84454C1329.22416,510.53139,1318.417,526.48512,1301.034,538.27687Z" transform="translate(-749.85585 -257.53319)"/><path class="cls-6" d="M1281.91811,550.399c-7.75257-5.63468-14.5207-12.04679-22.49616-16.05878-20.47273-10.29853-46.33248-4.03943-59.19449,14.93689-5.93524,8.75678-12.30258,11.57389-22.40256,11.21271-27.458-.98187-54.94885-1.0939-82.42847-1.37976-4.095-.0426-6.79853-1.84991-9.41889-4.63416-14.31556-15.21081-32.01436-23.9834-52.74862-25.40476-15.68461-1.07519-29.96051,3.34494-41.28267,15.192a6.6006,6.6006,0,0,1-5.47007,1.63776c-20.12745-5.96713-40.10632-12.40979-58.7409-22.295-3.9512-2.096-7.45834-5.01572-11.35053-7.24017-3.84935-2.2-4.33484-5.23108-4.52241-9.469-.57178-12.91858-.47924-26.17817-3.55269-38.5848-2.93792-11.85946-2.07889-22.89677-.27307-34.44994,5.62465-35.98465,22.39338-67.1997,42.67868-96.44609,17.66466-25.46807,43.24707-40.84049,72.59343-50.34862,49.43343-16.0163,99.41032-16.3772,149.40457-4.23535,26.72709,6.49108,51.902,18.10519,73.01853,35.89188,23.04361,19.41,37.04063,44.673,39.96824,75.28763.41211,4.30946.608,8.65851,1.344,12.91313.84765,4.90076,3.65485,6.1026,8.33417,4.866,1.56116-.41256,3.93872.41742,5.32953,1.48139,25.19673,19.27457,30.59846,46.39959,29.39314,75.84454-.87665,21.41487-11.68384,37.36857-29.06691,49.16032C1294.48525,542.71916,1287.669,546.7671,1281.91811,550.399Zm-111.43483-56.69249c10.44544-.86767,20.93766-1.36786,31.325-2.69137,14.63176-1.86426,28.90791-5.25352,41.07714-14.25681,12.235-9.05195,16.13175-22.984,9.80484-36.8049-2.73691-5.97871-6.17605-12.01317-10.63629-16.76427-27.79411-29.60631-61.443-40.48843-101.10945-29.68686-19.67277,5.35708-37.06013,14.89749-50.19835,30.98786-7.00635,8.58067-12.19419,18.00055-10.33683,29.645,2.18384,13.69126,11.03852,21.69016,23.17255,27.20109C1124.905,491.02066,1147.49462,492.95111,1170.48328,493.70654ZM1275.5071,412.856c-1.88367-6.25957-3.14222-12.6388-5.71973-18.43114-2.98059-6.69822-8.79743-7.1483-13.95194-1.85861-7.97892,8.18817-5.30085,27.03978,4.79571,32.53855,3.8679,2.10655,8.17161,1.73393,10.78514-1.91144C1273.40767,420.41585,1274.06288,416.68039,1275.5071,412.856Zm-229.434-2.64642a92.26283,92.26283,0,0,0,1.42453,9.85606c1.56964,6.24588,5.08463,9.42376,9.55421,9.19463,5.04385-.25859,10.50024-5.133,10.486-10.87653a90.61219,90.61219,0,0,0-2.41824-18.597c-.839-3.90993-3.6113-6.85613-8.11481-6.90682-4.78778-.05389-7.91922,2.72617-9.278,6.99173C1046.68556,403.14062,1046.59529,406.7125,1046.0731,410.20958Z" transform="translate(-749.85585 -257.53319)"/><path class="cls-6" d="M1035.08176,740.33c23.48173,8.97638,47.15984,9.7879,70.72532,10.88519,16.43973.76545,32.92393.643,49.38927.73224,3.11719.01691,4.892.40808,6.25809,3.839,4.72659,11.87086,14.93576,17.74305,28.219,15.1012,10.66593-2.12121,21.01933-5.93005,31.3885-9.36139,3.45356-1.14282,5.84135-2.12579,8.29514,1.84906,3.28043,5.314,8.80689,7.15961,14.86643,8.00348,2.12766.29633,4.24345,1.91108,6.00285,3.36243,3.6838,3.0387,6.95892,6.58326,10.70944,9.52832,5.4665,4.29249,7.34345,11.00342,4.29883,17.3094a62.9303,62.9303,0,0,1-20.57456,24.60236,15.30265,15.30265,0,0,1-7.36042,2.63073c-21.229,1.5044-42.47438,3.8465-63.71612,3.86-33.91871.02155-67.84643-1.33856-101.75212-2.603-8.41251-.31372-16.79819-2.291-25.09693-3.98883a7.91429,7.91429,0,0,1-4.83979-4.32892,54.17991,54.17991,0,0,1-3.82858-13.86957q-1.9801-19.08645-2.89722-38.2782C1034.72486,760.19354,1035.08176,750.74566,1035.08176,740.33Z" transform="translate(-749.85585 -257.53319)"/><path class="cls-2" d="M839.45907,652.35434c48.73024,29.99262,103.29709,41.31581,157.41519,53.88734,11.828,2.74765,23.82041,4.78641,35.73094,7.18216a26.32166,26.32166,0,0,1,3.0553,1.03843c-.12378,2.53879-.24329,4.98913-.36276,7.43948l-.8324-1.23114c-3.84549,1.50955-9.03965,1.98078-11.20044,4.78736-2.79865,3.63516-4.156,9.081-4.40555,13.838-.601,11.45765-.19614,22.96815-.1969,34.45728-.00013,2.15156,0,4.303,0,7.25281-2.76587-.46014-5.27793-.73785-7.72245-1.30609-29.28569-6.80707-57.409-17.05976-84.94361-28.98-24.77793-10.72675-49.30564-22.02577-70.66718-38.89549-8.96958-7.08344-17.3195-14.95734-25.82814-22.60865-.76446-.68747-.97615-2.4216-.84672-3.60425A82.95363,82.95363,0,0,1,839.45907,652.35434Z" transform="translate(-749.85585 -257.53319)"/><path class="cls-7" d="M895.91749,504.2598c-1.05775,8.79086-2.69685,23.0054-4.6096,37.18305-.15265,1.13138-2.0385,2.48639-3.38483,2.92947-16.16784,5.32117-32.64124,8.5452-49.61988,4.77366-23.27976-5.17121-44.80019-14.1565-62.10394-31.1981-10.327-10.17063-9.86054-19.46509.3454-29.8906,8.88857-9.07978,19.376-11.76638,31.52358-9.194,2.60637.55193,5.17516,1.334,7.804,1.71639,5.80309.844,9.9337-2.85488,9.37542-8.6574a75.40989,75.40989,0,0,0-2.20517-11.17279c-2.4141-9.54157-3.93834-19.21883,1.0277-28.246,8.44985-15.36,20.7424-18.25783,38.85935-9.32174,10.4897,5.174,16.72285,14.55537,21.59826,24.79791C892.15818,464.01,895.81874,480.80618,895.91749,504.2598Z" transform="translate(-749.85585 -257.53319)"/><path class="cls-1" d="M997.40789,573.273c.85262-17.67594,11.96912-26.64265,30.00364-27.86262,14.3343-.96967,27.25475,4.12589,38.43395,12.91223,12.00626,9.43629,22.02757,20.6945,29.115,34.42588a123.97566,123.97566,0,0,0,8.02256,12.60838,44.782,44.782,0,0,1,7.81223,23.3812c.80331,16.42212-13.98066,29.92548-31.64168,29.04505-12.46775-.62159-23.93727-4.96265-34.1403-11.63926-18.49382-12.10181-32.65364-28.33033-40.9312-49.0092C1001.03065,589.51165,999.58561,581.24565,997.40789,573.273Z" transform="translate(-749.85585 -257.53319)"/><path class="cls-1" d="M1273.46364,580.46947c-1.30658,4.94-1.67352,10.40164-4.07782,14.73224-12.221,22.01273-26.909,42.09788-49.28332,54.9521-12.69025,7.29062-26.06324,11.269-41.06993,6.59082-16.41349-5.1167-20.8863-22.84085-15.84635-34.19431a69.814,69.814,0,0,1,10.9841-17.09958c13.49638-15.57313,28.22655-30.02384,39.71258-47.37282,7.10327-10.72906,23.34894-14.82568,35.50688-10.53482C1263.79145,552.62584,1272.71437,565.15919,1273.46364,580.46947Z" transform="translate(-749.85585 -257.53319)"/><path class="cls-2" d="M992.27613,612.04836c-36.33168-8.32812-71.7691-15.13089-104.69232-31.08454,2.90489-7.26428,5.59424-14.00625,8.30811-20.73831.17962-.44559.46177-1.05347.83769-1.18662,10.36828-3.67349,9.13617-13.60205,11.58973-21.51349a35.51951,35.51951,0,0,0,.778-5.12238c7.299,3.78147,13.92472,7.97467,21.09473,10.77317,15.79191,6.16373,31.81554,11.74835,47.846,17.27521,3.6052,1.24295,4.78244,2.48892,4.28546,6.598-1.68962,13.97016,2.43955,26.9987,7.65015,39.73719C990.527,608.13925,991.1435,609.466,992.27613,612.04836Z" transform="translate(-749.85585 -257.53319)"/><path class="cls-7" d="M876.53389,565.77113c-4.14145,6.81888-8.49284,13.45173-12.28432,20.39054-3.15876,5.78086-7.7593,8.33606-14.13273,9.50382-16.03884,2.93863-32.035,4.51285-48.11659.85617-13.80055-3.138-19.02863-11.3631-15.35516-25.11457,1.46341-5.47818,4.54346-10.57785,7.26547-15.64685,1.67992-3.12836,4.276-3.19382,7.64723-1.69034,14.0531,6.26761,28.53221,11.54367,44.03582,12.343C855.47424,566.92232,865.426,566.0526,876.53389,565.77113Z" transform="translate(-749.85585 -257.53319)"/><path class="cls-1" d="M847.23348,776.2337c-30.2463,11.66242-51.151-3.60894-58.9031-23.2782-7.37988-18.72477,2.42358-37.96394,23.32522-45.63987C815.7568,734.00741,826.74415,757.29,847.23348,776.2337Z" transform="translate(-749.85585 -257.53319)"/><path class="cls-1" d="M815.95145,797.44343c8.22449-.65986,16.17141-.77521,23.91646-2.08454,6.16206-1.04181,12.045-3.66193,18.1236-5.31757,1.67549-.45636,3.98-.61151,5.36467.188,11.93073,6.88923,23.71835,14.02631,35.54135,21.10163.54191.32434,1.01436.76471,1.82654,1.38629-6.43925,6.27515-14.46421,8.44825-22.52523,10.25208a72.34264,72.34264,0,0,1-37.0074-1.38226C828.55263,817.80573,820.17391,809.559,815.95145,797.44343Z" transform="translate(-749.85585 -257.53319)"/><path class="cls-2" d="M1125.84593,617.88589c-1.92154-15.9542-14.56916-27.02656-20.926-41.421h71.0332q.29407.68742.5882,1.37488c-3.45688,3.88986-6.81809,7.87018-10.39066,11.65073-7.34751,7.77524-14.0073,15.9971-18.30949,25.92847-.43646,1.00754-1.68567,2.3281-2.59573,2.35828C1139.00387,617.98428,1132.75222,617.88589,1125.84593,617.88589Z" transform="translate(-749.85585 -257.53319)"/><path class="cls-8" d="M1305.79623,755.38165c-.47339,6.93811-2.14569,13.92346-7.04413,19.8938-2.69952,3.29022-5.93048,4.90662-10.06067,4.01551a43.60607,43.60607,0,0,1-25.9214-16.57069c-2.17441-2.81781,1.10059-12.34985,4.53937-13.14966,8.8888-2.06738,17.777-4.35419,26.79792-5.57288C1302.35251,742.884,1305.99136,746.80248,1305.79623,755.38165Z" transform="translate(-749.85585 -257.53319)"/><path class="cls-6" d="M1232.40716,726.30861c-2.664-20.77347-11.86972-37.40156-23.71793-53.07676,6.3971-2.60742,12.32911-5.0253,19.48884-7.94361,4.85059,11.10136,9.90708,22.19435,14.53217,33.4644a150.23938,150.23938,0,0,1,5.44113,17.08191c.31748,1.14847-.336,3.44534-1.21707,3.89795C1242.25717,722.135,1237.36472,724.11837,1232.40716,726.30861Z" transform="translate(-749.85585 -257.53319)"/><path class="cls-2" d="M1288.79629,569.47075c4.03924-.49826,7.71429-.66959,11.25232-1.4567,4.82581-1.07364,6.27875,1.39432,5.81781,5.36271-.86145,7.41583-1.43493,14.97787-3.41479,22.12259-2.47791,8.94211-6.16022,17.56107-9.55854,26.227-.55951,1.42685-2.20593,3.21219-3.55927,3.41143-7.045,1.03757-14.15778,1.61558-22.55665,2.48993,2.011-3.08526,3.0315-5.5722,4.81623-7.24252,13.79932-12.91465,19.00239-28.85783,17.21485-47.39192C1288.715,572.0262,1288.79629,571.04222,1288.79629,569.47075Z" transform="translate(-749.85585 -257.53319)"/><path class="cls-8" d="M1224.01342,742.32433c-13.34424,5.679-25.24165,10.83088-38.36732,11.91791-6.66434.552-9.47208-1.89837-8.21616-8.40185,1.5275-7.91,4.25772-15.61222,6.88727-23.26.41778-1.21518,3.51743-2.77136,4.56732-2.31341C1201.28063,725.67415,1212.118,733.57867,1224.01342,742.32433Z" transform="translate(-749.85585 -257.53319)"/><path class="cls-2" d="M1162.90994,728.91533c-.09222,3.29712-.058,6.14179-4.91,5.971-27.25832-.95977-54.52371-1.71695-81.786-2.566a11.46689,11.46689,0,0,1-2.26864-.82684c1.95706-3.41989,3.6849-6.72376,5.74417-9.80622.4303-.6441,2.10779-.73346,3.17011-.63629q39.24171,3.58965,78.472,7.30368A7.57458,7.57458,0,0,1,1162.90994,728.91533Z" transform="translate(-749.85585 -257.53319)"/><path class="cls-6" d="M1092.70767,673.643c-16.32712,14.74708-26.06638,34.86119-35.95613,55.73531l-6.39279-1.39789c1.58557-7.8491,3.04074-15.31766,4.61044-22.76209,2.47571-11.74131,10.56644-20.17066,17.50468-29.25465a4.49316,4.49316,0,0,1,2.98062-1.3389C1081.46093,674.19236,1087.47922,673.92436,1092.70767,673.643Z" transform="translate(-749.85585 -257.53319)"/><path class="cls-1" d="M891.721,424.72136c-4.26494-3.79431-8.96834-7.97872-14.04917-12.49891,8.09348-13.17886,17.45745-25.49077,28.64035-34.98806C901.451,393.05524,896.37761,409.56646,891.721,424.72136Z" transform="translate(-749.85585 -257.53319)"/><path class="cls-6" d="M1120.91777,655.15305c1.55163-4.53845,3.45715-10.45322,5.64664-16.261.507-1.345,1.85187-3.1308,3.03842-3.325a69.34393,69.34393,0,0,1,12.23276-.82233c.92752.01444,2.2931,1.71512,2.6579,2.88815,1.56742,5.03931,2.83673,10.17133,4.15284,15.04078C1139.193,653.519,1129.48659,654.38688,1120.91777,655.15305Z" transform="translate(-749.85585 -257.53319)"/><path class="cls-8" d="M1239.45706,746.60113c4.062-.55426,7.44645,2.10553,7.03583,5.05481a2.96559,2.96559,0,0,1-1.62478,2.10876c-.68558.1872-1.69364-.54278-2.45963-1.0285-.365-.23144-.52185-.81885-.72955-1.2652C1240.99939,750.01049,1240.33982,748.54083,1239.45706,746.60113Z" transform="translate(-749.85585 -257.53319)"/><path d="M1170.48328,493.70654c-22.98866-.75543-45.57824-2.68588-66.9014-12.3703-12.134-5.51093-20.98871-13.50983-23.17255-27.20109-1.85736-11.64441,3.33048-21.06429,10.33683-29.645,13.13822-16.09037,30.52558-25.63078,50.19835-30.98786,39.66643-10.80157,73.31534.08055,101.10945,29.68686,4.46024,4.7511,7.89938,10.78556,10.63629,16.76427,6.32691,13.82091,2.43012,27.753-9.80484,36.8049-12.16923,9.00329-26.44538,12.39255-41.07714,14.25681C1191.42094,492.33868,1180.92872,492.83887,1170.48328,493.70654Zm-69.9834-53.93028c-6.704,9.23053-4.51364,19.079,5.88077,24.3158a97.68506,97.68506,0,0,0,20.92689,8.02093c24.101,5.7617,48.52779,5.87332,72.98184,2.43951,11.42457-1.60425,22.74522-3.84062,32.33339-10.89752,7.65726-5.63573,8.48566-13.54119,2.45883-21.17864-21.17707,10.299-30.68235,7.76018-46.6176-12.45153-20.58973,11.60532-21.06208,11.60276-45.30742-.24525C1131.72008,450.82546,1116.46305,452.34116,1100.49988,439.77626Zm84.60862-32.43689c-13.82328-2.41927-26.98329-2.18749-40.97426,2.426,3.692,3.09408,6.5925,5.76519,9.73352,8.11485C1166.10465,427.03406,1179.27961,422.889,1185.1085,407.33937Zm14.4087,4.85492c1.91189,8.73619,4.07385,16.06256,11.80158,19.62183,4.77075,2.19735,9.52649.74109,14.37528-2.216A80.70184,80.70184,0,0,0,1199.5172,412.19429Zm-89.54173,14.7999c4.47214,3.25808,7.38666,7.01491,12.37836,4.36944,4.775-2.53068,8.08784-9.9164,6.98563-16.68273C1122.94615,418.74634,1116.90367,422.58865,1109.97547,426.99419Z" transform="translate(-749.85585 -257.53319)"/><path d="M1275.5071,412.856c-1.44422,3.82439-2.09943,7.55985-4.09082,10.33736-2.61353,3.64537-6.91724,4.018-10.78514,1.91144-10.09656-5.49877-12.77463-24.35038-4.79571-32.53855,5.15451-5.28969,10.97135-4.83961,13.95194,1.85861C1272.36488,400.2172,1273.62343,406.59643,1275.5071,412.856Z" transform="translate(-749.85585 -257.53319)"/><path d="M1046.0731,410.20958c.52219-3.49708.61246-7.069,1.65375-10.33793,1.35877-4.26556,4.49021-7.04562,9.278-6.99173,4.50351.05069,7.27585,2.99689,8.11481,6.90682a90.61219,90.61219,0,0,1,2.41824,18.597c.01419,5.74349-5.4422,10.61794-10.486,10.87653-4.46958.22913-7.98457-2.94875-9.55421-9.19463A92.26283,92.26283,0,0,1,1046.0731,410.20958Z" transform="translate(-749.85585 -257.53319)"/><path class="cls-9" d="M1100.49988,439.77626c15.96317,12.5649,31.2202,11.0492,42.6567-9.9967,24.24534,11.848,24.71769,11.85057,45.30742.24525,15.93525,20.21171,25.44053,22.75056,46.6176,12.45153,6.02683,7.63745,5.19843,15.54291-2.45883,21.17864-9.58817,7.0569-20.90882,9.29327-32.33339,10.89752-24.454,3.43381-48.88081,3.32219-72.98184-2.43951a97.68506,97.68506,0,0,1-20.92689-8.02093C1095.98624,458.85529,1093.79584,449.00679,1100.49988,439.77626Z" transform="translate(-749.85585 -257.53319)"/><path class="cls-4" d="M1185.1085,407.33937c-5.82889,15.54959-19.00385,19.69469-31.24074,10.5408-3.141-2.34966-6.04156-5.02077-9.73352-8.11485C1158.12521,405.15188,1171.28522,404.9201,1185.1085,407.33937Z" transform="translate(-749.85585 -257.53319)"/><path class="cls-4" d="M1199.5172,412.19429a80.70184,80.70184,0,0,1,26.17686,17.40582c-4.84879,2.9571-9.60453,4.41336-14.37528,2.216C1203.59105,428.25685,1201.42909,420.93048,1199.5172,412.19429Z" transform="translate(-749.85585 -257.53319)"/><path class="cls-4" d="M1109.97547,426.99419c6.9282-4.40554,12.97068-8.24785,19.364-12.31329,1.10221,6.76633-2.2106,14.152-6.98563,16.68273C1117.36213,434.0091,1114.44761,430.25227,1109.97547,426.99419Z" transform="translate(-749.85585 -257.53319)"/><path class="cls-10" d="M828.61885,713.1126s62.23752,54.878,189.11557,85.17073l1.7561,10.97561s-73.74893,6.58537-121.16715-14.4878C898.32337,794.77114,831.79595,760.96626,828.61885,713.1126Z" transform="translate(-749.85585 -257.53319)"/><path class="cls-10" d="M876.53389,594.22047l-29.30041,42.58536s38.56018,38.96081,191.77969,58.9926c0,0,9.13488-21.2365,15.104-26.06577,0,0-33.62656-15.3796-48.46988-38.19512C1005.64732,631.53754,921.35464,617.90925,876.53389,594.22047Z" transform="translate(-749.85585 -257.53319)"/><path class="cls-10" d="M1087.74488,704.41559s22.2439-33.65854,48.58537-34.82927c0,0,27.80488-1.17073,35.70732,1.7561,0,0,9.36585,2.55235,15.80487,2.30056,0,0,24.29269,30.313,23.70732,39.46962,0,0-12.58537-11.58009-24.29268-11.602,0,0-13.17073,1.73423-16.09756,9.92935Z" transform="translate(-749.85585 -257.53319)"/><path class="cls-10" d="M1242.99189,655.15305l13.92372,28.482s25.94459-32.78049,27.02108-40.39024h-29.94791Z" transform="translate(-749.85585 -257.53319)"/></svg>